<svg xmlns="http://www.w3.org/2000/svg" viewBox="0 0 512 512" role="img" aria-label="Guardal">
  <rect x="0" y="0" width="512" height="512" rx="112" ry="112" fill="#FFFFFF"/>
  <g transform="translate(88 86) scale(0.2105)">
    <g transform="translate(0.000000,1614.000000) scale(0.100000,-0.100000)" fill="#1A1A1C"><path d="M7620 15894 c-150 -8 -502 -42 -665 -65 -244 -34 -636 -110 -835
-163 -30 -8 -91 -24 -135 -36 -560 -148 -1188 -401 -1705 -687 -1259 -696
-2334 -1775 -3037 -3048 -268 -485 -509 -1049 -643 -1505 -12 -41 -26 -86 -31
-100 -59 -171 -176 -688 -228 -1010 -52 -325 -69 -509 -92 -990 -32 -680 68
-1531 266 -2255 9 -33 23 -85 31 -115 8 -30 18 -66 24 -80 5 -14 25 -79 46
-145 65 -212 162 -473 277 -745 73 -174 304 -637 383 -770 31 -52 81 -138 112
-190 76 -129 268 -414 395 -587 576 -782 1334 -1481 2172 -2005 233 -146 663
-375 900 -480 153 -68 191 -84 355 -150 726 -292 1575 -477 2375 -519 341 -18
899 -1 1215 36 293 35 433 58 770 126 331 67 819 217 1197 368 593 237 1125
528 1663 911 1022 727 1894 1748 2448 2867 323 653 550 1312 687 1998 86 429
123 744 146 1250 16 355 -4 859 -51 1235 -6 47 -15 123 -21 170 -5 47 -13 101
-17 120 l-8 35 -2908 3 c-1723 1 -2906 -2 -2904 -7 1 -5 32 -29 68 -53 36 -24
144 -100 240 -168 96 -68 234 -164 305 -213 72 -50 162 -113 200 -142 39 -28
99 -71 135 -95 36 -23 85 -58 110 -76 25 -18 127 -91 226 -161 261 -184 426
-301 508 -359 39 -28 116 -82 171 -120 55 -39 141 -99 190 -134 50 -35 146
-103 215 -150 69 -48 161 -112 205 -143 77 -55 147 -104 360 -253 55 -39 151
-107 213 -152 62 -45 127 -89 143 -99 22 -13 29 -25 29 -48 0 -28 -70 -323
-106 -445 -56 -190 -156 -469 -209 -586 -14 -30 -25 -57 -25 -59 0 -5 -49
-114 -93 -205 -150 -312 -406 -714 -626 -985 -447 -551 -940 -968 -1531 -1297
-572 -318 -1135 -508 -1800 -607 -448 -67 -1072 -65 -1520 4 -120 19 -296 51
-355 65 -158 37 -223 53 -245 60 -14 4 -59 18 -100 30 -431 127 -806 291
-1194 522 -357 213 -666 457 -1001 790 -278 277 -464 502 -672 813 -134 200
-218 347 -332 580 -79 161 -131 272 -131 280 0 2 -13 33 -29 69 -17 35 -41 97
-55 137 -13 41 -40 119 -59 174 -122 350 -212 770 -247 1150 -47 507 -37 860
39 1366 53 355 179 811 319 1154 113 276 266 583 385 775 266 430 483 708 786
1010 194 193 211 210 351 326 193 161 482 365 690 486 693 405 1401 638 2190
720 170 18 785 17 945 -1 579 -65 1150 -214 1613 -422 23 -10 63 -28 90 -40
26 -12 91 -43 144 -70 88 -43 124 -62 253 -134 422 -233 814 -540 1200 -938
l195 -201 205 140 c259 176 826 557 1424 959 256 171 466 316 468 321 4 12
-132 185 -291 369 -139 161 -469 496 -631 641 -117 105 -409 342 -535 435
-516 380 -1030 673 -1620 921 -186 79 -491 190 -665 243 -49 15 -110 34 -135
42 -25 8 -140 39 -256 68 -400 102 -815 176 -1144 205 -69 6 -163 16 -210 21
-83 10 -852 20 -980 13z"/><path d="M7835 8399 c-205 -19 -472 -94 -620 -174 -112 -61 -143 -80 -213
-127 -251 -167 -446 -394 -587 -683 -120 -246 -174 -458 -182 -725 -8 -251 27
-456 121 -703 51 -134 78 -184 184 -347 105 -160 309 -364 474 -473 376 -249
797 -348 1223 -286 490 71 926 349 1209 772 176 263 268 535 296 876 44 535
-205 1126 -615 1461 -256 209 -539 340 -840 389 -191 31 -286 35 -450 20z"/></g>
  </g>
</svg>
